<svg version="1.2" xmlns="http://www.w3.org/2000/svg" viewBox="0 0 138 35" width="138" height="35">
	<title>Agrozet-LogoSlogan-Positive-Blue-RGB_vb</title>
	<style>
		.s0 { fill: #f4f4f4 } 
		.s1 { fill: #fcca13 }
	</style>
	<path class="s1" d="m51 28.6l0.1-0.8h-4.1l-0.1 0.9h2.7l-3.3 3.7-0.1 0.7h4.1l0.1-0.9h-2.7c0 0 3.3-3.6 3.3-3.6zm2.2 0.7c-1.3 0-2.3 0.9-2.3 2.2 0 1 0.7 1.7 1.9 1.7 0.5 0 1-0.1 1.4-0.3v-0.9q-0.6 0.3-1.3 0.3c-0.6 0-1-0.2-1-0.7 2.2 0 2.8-0.5 2.8-1.3 0-0.7-0.6-1-1.5-1zm-1.2 1.6c0.1-0.5 0.5-0.8 1.2-0.8 0.3 0 0.5 0.1 0.5 0.3 0 0.3-0.3 0.5-1.7 0.5zm8.2-1.6c-0.5 0-1 0.2-1.4 0.6-0.1-0.4-0.5-0.6-1.1-0.6-0.5 0-1 0.2-1.2 0.5v-0.4h-0.9l-0.6 3.7h1l0.3-2.1c0.1-0.5 0.5-0.8 1-0.8 0.4 0 0.7 0.3 0.6 0.8l-0.4 2.1h1l0.4-2.1c0.1-0.5 0.5-0.8 0.9-0.8 0.4 0 0.7 0.3 0.6 0.8l-0.3 2.1h1l0.3-2.3c0.2-1-0.3-1.5-1.2-1.5zm4.3-1.2l-0.4-0.7h-0.8l0.8 1.5h0.6l1.3-1.5h-0.9zm-0.1 1.2c-1.3 0-2.3 0.9-2.3 2.2 0 1 0.7 1.7 1.8 1.7 0.6 0 1.1-0.1 1.5-0.3v-0.9q-0.6 0.3-1.3 0.3c-0.6 0-1-0.2-1.1-0.7 2.2 0 2.8-0.5 2.8-1.3 0-0.7-0.6-1-1.4-1zm-1.2 1.6c0.1-0.5 0.5-0.8 1.1-0.8 0.3 0 0.6 0.1 0.6 0.3 0 0.3-0.3 0.5-1.7 0.5zm6.3-1.1c-0.2-0.3-0.5-0.5-1.1-0.5-1.2 0-2.2 1-2.2 2.3 0 0.9 0.6 1.6 1.5 1.6 0.6 0 1-0.2 1.3-0.5v0.4h0.9l0.9-5.5h-0.9c0 0-0.4 2.2-0.4 2.2zm-1.4 2.5c-0.5 0-0.9-0.4-0.9-0.9 0-0.7 0.6-1.2 1.2-1.2 0.5 0 0.9 0.4 0.9 0.9 0 0.6-0.6 1.2-1.2 1.2zm5.2-3c-1.3 0-2.3 0.9-2.3 2.2 0 1 0.7 1.7 1.8 1.7 0.6 0 1.1-0.1 1.5-0.3v-0.9q-0.6 0.3-1.3 0.3c-0.6 0-1.1-0.2-1.1-0.7 2.2 0 2.8-0.5 2.8-1.3 0-0.7-0.6-1-1.4-1zm-1.3 1.6c0.2-0.5 0.6-0.8 1.2-0.8 0.3 0 0.6 0.1 0.6 0.3 0 0.3-0.4 0.5-1.8 0.5zm1.4-2.8l-0.4-0.7h-0.8l0.8 1.5h0.6l1.3-1.5h-0.9zm2.5-0.5l-0.7 4.4c0 0 0 0.3 0 0.4 0 0.5 0.3 0.8 0.9 0.8q0.5 0 0.7-0.1v-0.8q-0.1 0-0.3 0-0.4 0-0.3-0.3l0.7-4.4c0 0-1 0-1 0zm1.4 3.9c0 1 0.7 1.7 1.8 1.7 0.5 0 0.9-0.1 1.3-0.3v-0.9q-0.5 0.3-1.1 0.3c-0.6 0-1-0.4-1-0.9 0-0.8 0.7-1.2 1.4-1.2 0.4 0 0.7 0.1 0.9 0.2l0.3-0.9c-0.3-0.1-0.7-0.2-1.2-0.2-1.3 0-2.4 0.8-2.4 2.2zm3.7 1.6h1l0.6-3.7h-1zm1.4-5.6c-0.4 0-0.7 0.3-0.7 0.7 0 0.3 0.2 0.5 0.5 0.5 0.4 0 0.7-0.3 0.7-0.7 0-0.3-0.2-0.5-0.5-0.5zm4.5 2.6c0.3 0 0.8 0 1.1 0.2l0.2-0.9c-0.3-0.1-0.8-0.2-1.2-0.2-1.1 0-1.9 0.6-1.9 1.4q0 0.7 0.9 0.9l0.5 0.1c0.4 0.1 0.5 0.2 0.5 0.3 0 0.3-0.2 0.4-0.7 0.4-0.4 0-0.9-0.1-1.2-0.3l-0.3 0.9c0.3 0.1 0.9 0.2 1.4 0.2 1.1 0 1.8-0.5 1.8-1.3 0-0.6-0.3-0.8-1-1h-0.3c-0.4-0.1-0.6-0.2-0.6-0.4q0-0.3 0.8-0.3zm3.6-2h-0.9l-0.2 1.2h-0.6l-0.2 0.8h0.7l-0.3 1.7c-0.2 0.9 0.3 1.3 1.1 1.3 0.3 0 0.7 0 0.9-0.1l0.1-0.8c-0.2 0-0.5 0-0.7 0-0.3 0-0.5-0.1-0.4-0.5l0.2-1.6h1.1l0.1-0.8h-1.1c0 0 0.2-1.2 0.2-1.2zm2.6 1.7l0.1-0.5h-1l-0.6 3.8h1l0.3-2c0.1-0.8 0.6-1 1.1-1 0.2 0 0.3 0.1 0.4 0.1l0.2-0.9c-0.1 0-0.2-0.1-0.4-0.1-0.5 0-0.8 0.2-1.1 0.6zm5.5 1c0-0.9-0.6-1.7-1.6-1.7-1.3 0-2.4 1-2.4 2.3 0 0.9 0.7 1.7 1.7 1.7 1.3 0 2.3-1 2.3-2.3zm-2.1 1.3c-0.5 0-0.9-0.3-0.9-0.8 0-0.7 0.6-1.3 1.2-1.3 0.5 0 0.9 0.4 0.9 0.9 0 0.7-0.6 1.2-1.2 1.2zm2.6 1.1c-0.1 0.5-0.4 0.6-0.7 0.6-0.1 0-0.3 0-0.4 0l-0.3 0.8c0.2 0 0.4 0.1 0.7 0.1 0.8 0 1.5-0.5 1.6-1.4l0.7-4h-1c0 0-0.6 3.9-0.6 3.9zm1.3-5.7c-0.3 0-0.6 0.3-0.6 0.7 0 0.3 0.2 0.5 0.5 0.5 0.3 0 0.6-0.3 0.6-0.7 0-0.3-0.2-0.5-0.5-0.5zm3 1.7c-1.3 0-2.3 1-2.3 2.3 0 1 0.7 1.6 1.8 1.6 0.6 0 1.1-0.1 1.5-0.3v-0.8q-0.6 0.2-1.3 0.3c-0.6 0-1.1-0.3-1.1-0.8 2.2 0 2.8-0.5 2.8-1.2 0-0.7-0.6-1.1-1.4-1.1zm-1.2 1.6c0.1-0.4 0.5-0.7 1.1-0.7 0.3 0 0.6 0.1 0.6 0.3 0 0.2-0.3 0.4-1.7 0.4zm8.2-1.6c-0.6 0-1.1 0.3-1.4 0.7-0.1-0.5-0.6-0.7-1.1-0.7-0.6 0-1 0.3-1.2 0.5v-0.4h-0.9l-0.6 3.8h1l0.3-2.2c0.1-0.5 0.5-0.8 0.9-0.8 0.4 0 0.7 0.3 0.6 0.8l-0.3 2.2h1l0.3-2.2c0.1-0.5 0.5-0.8 1-0.8 0.4 0 0.7 0.3 0.6 0.8l-0.4 2.2h1l0.4-2.4c0.1-0.9-0.4-1.5-1.2-1.5zm3.7 3.9h1l0.6-3.8h-1c0 0-0.6 3.8-0.6 3.8zm1.4-5.6c-0.4 0-0.6 0.3-0.6 0.7 0 0.3 0.1 0.5 0.4 0.5 0.4 0 0.7-0.3 0.7-0.7 0-0.3-0.2-0.5-0.5-0.5zm5.9 2.2c-0.2-0.3-0.6-0.5-1.1-0.5-1.2 0-2.2 1-2.2 2.3 0 0.9 0.6 1.6 1.5 1.6 0.6 0 1-0.2 1.3-0.4v0.4h0.9l0.9-5.6h-1c0 0-0.3 2.2-0.3 2.2zm-1.4 2.5c-0.5 0-0.9-0.4-0.9-0.9 0-0.7 0.6-1.2 1.2-1.2 0.5 0 0.9 0.4 0.9 0.9 0 0.7-0.6 1.2-1.2 1.2zm5.6-0.8c-0.1 0.5-0.5 0.8-1 0.8-0.4 0-0.7-0.3-0.6-0.8l0.3-2.1h-1l-0.3 2.4c-0.2 0.9 0.3 1.5 1.2 1.5 0.5 0 1-0.3 1.2-0.6v0.5h0.9l0.6-3.8h-1c0 0-0.3 2.1-0.3 2.1zm3.9-2.6l1.4-1.4h-0.9l-0.6 0.6-0.4-0.6h-0.9l0.9 1.4zm-0.3 1.3c0.3 0 0.8 0 1.1 0.2l0.2-0.9c-0.3-0.1-0.8-0.2-1.2-0.2-1.1 0-1.9 0.6-1.9 1.4q0 0.7 0.9 0.9l0.5 0.1c0.3 0.1 0.5 0.2 0.5 0.3 0 0.3-0.2 0.4-0.7 0.4-0.4 0-0.9-0.1-1.2-0.3l-0.3 0.9c0.3 0.1 0.8 0.2 1.4 0.2 1 0 1.8-0.5 1.8-1.3 0-0.6-0.4-0.8-1-1h-0.4c-0.3-0.1-0.5-0.2-0.5-0.4q0-0.3 0.8-0.3zm3.2-2.7l-0.8 1.4h0.8l1.1-1.4c0 0-1.1 0-1.1 0zm-1.6 5.7h1l0.6-3.8h-1z"/>
	<path class="s0" d="m75.5 4.6c-7.3 0-12.2 5-12.2 11.5 0 5.7 4.2 8.3 8.9 8.3 6.9 0 12.4-4.1 12.4-11.8 0-5-4-8-9.1-8zm-2.3 14.6c-1.7 0-2.8-1.1-2.8-3.2 0-2 1.1-6.2 4.3-6.2 1.9 0 2.7 1.4 2.7 3.2 0 2.4-1.2 6.2-4.2 6.2zm29.9-8.7l1-5.5h-16.6l-1.1 5.6h8.1c-6.2 4.2-10.5 9.4-10.5 9.4l-0.7 3.9h17.7l1-5.5h-8.9v-0.1c3.6-4.1 10-7.8 10-7.8zm12.2-5.9c-7.4 0-11.9 5.5-11.9 11.3 0 5.6 3.4 8.5 9.2 8.5 1.7 0 5.1-0.3 7.9-1.7l-0.4-4.8c-1.8 0.8-3.8 1.2-5.9 1.2-1.5 0-2.8-0.3-3.6-1-0.3-0.3-0.6-0.8-0.7-1.1 8.6 0.2 12.5-2.3 12.9-6.2 0.5-4.2-3.5-6.2-7.5-6.2zm-4.8 7.5c0.2-1 1.3-2.7 4-2.7 1.2 0 1.9 0.6 1.9 1.1 0 1.1-1.3 1.6-5.9 1.6zm22.1-1.8h4l1-5.3h-3.9l0.7-3.8h-6.6l-0.8 3.8h-2.3l-1 5.3h2.3l-1.2 6.2c-0.3 1.8-0.4 2.7-0.4 3.8 0 2.4 1.8 4.1 5.5 4.1 1.3 0 2.8-0.2 3.5-0.5l1.1-5.4c-0.5 0-1.1 0-1.6 0-1.3 0-1.5-0.7-1.5-1.4 0-0.6 0.2-1.8 0.3-2.4 0 0 0.9-4.4 0.9-4.4zm-69.6-5.7c-2.9 0-5.2 2-6.5 4.5h-0.2l0.7-4.1h-5.6l-3.6 18.9h6.9l1.1-5.9c0.6-3.4 1.7-6.8 6.2-6.8h0.9v-0.3l1.2-6.3zm-22.4 0c-9.1 0-13.7 5.7-13.7 11.8 0 4.2 2.8 7.3 6.9 7.3 2.2 0 3.7-0.7 5.1-2.2h0.1l-0.2 0.7c-0.6 3.5-2.7 4.5-5.2 4.5-1.7 0-4-0.5-5.9-1.5l-1 5c2.1 1.1 5 1.8 7.2 1.8 2.5 0 5.3-0.4 7.5-2.1 1.7-1.2 2.7-3.1 3.4-5.2 0.1-0.1 0.2-0.6 0.2-0.8l3.4-18c-2.4-0.9-4.8-1.3-7.8-1.3zm-0.3 9.2c-0.7 3.5-2.3 4.7-3.7 4.7-1.2 0-2.4-0.8-2.4-2.9 0-3.2 2.2-5.8 5.1-5.8 0.6 0 1.3 0.1 1.7 0.2zm-14.4-12.9q0 0 0 0 0 0 0 0c-12.7-1.3-19.1 6.1-25.2 22.5l-0.1 0.5h7.1l1.9-5.1h8.1l-1 5.1h6.9l4.2-22.7q-0.9-0.2-1.9-0.3zm-7.2 12.5h-6.5c2.3-4.2 4.9-6.8 7.9-7.1z"/>
</svg>